<mxfile host="app.diagrams.net" modified="2023-09-18T16:39:35.965Z" agent="Mozilla/5.0 (Windows NT 10.0; Win64; x64) AppleWebKit/537.36 (KHTML, like Gecko) Chrome/117.0.0.0 Safari/537.36" etag="WEg9q4IkcDQF9GwkvMBY" version="21.7.5" type="device">
  <diagram id="R2lEEEUBdFMjLlhIrx00" name="Page-1">
    <mxGraphModel dx="2074" dy="1278" grid="1" gridSize="10" guides="1" tooltips="1" connect="1" arrows="1" fold="1" page="1" pageScale="1" pageWidth="850" pageHeight="1100" math="0" shadow="0" extFonts="Permanent Marker^https://fonts.googleapis.com/css?family=Permanent+Marker">
      <root>
        <mxCell id="0" />
        <mxCell id="1" parent="0" />
        <mxCell id="80U4DQfTQv0dEXXJ2knm-75" value="" style="group" parent="1" vertex="1" connectable="0">
          <mxGeometry x="537" y="286.84000000000003" width="61" height="123.50999999999999" as="geometry" />
        </mxCell>
        <mxCell id="80U4DQfTQv0dEXXJ2knm-78" value="System Events" style="text;html=1;strokeColor=none;fillColor=none;align=center;verticalAlign=middle;whiteSpace=wrap;rounded=0;fontSize=16;rotation=90;" parent="80U4DQfTQv0dEXXJ2knm-75" vertex="1">
          <mxGeometry x="-4" y="43" width="65" height="30" as="geometry" />
        </mxCell>
        <mxCell id="2NNHm8F2flXZlX8GQsY1-1" value="" style="shape=flexArrow;endArrow=classic;html=1;rounded=0;fontSize=16;fillColor=#f5f5f5;gradientColor=#b3b3b3;strokeColor=#666666;" edge="1" parent="80U4DQfTQv0dEXXJ2knm-75">
          <mxGeometry width="50" height="50" relative="1" as="geometry">
            <mxPoint y="5.92999999999995" as="sourcePoint" />
            <mxPoint y="123.15999999999997" as="targetPoint" />
          </mxGeometry>
        </mxCell>
        <mxCell id="80U4DQfTQv0dEXXJ2knm-40" value="" style="group" parent="1" vertex="1" connectable="0">
          <mxGeometry x="170" y="109.35" width="35" height="123.50999999999999" as="geometry" />
        </mxCell>
        <mxCell id="80U4DQfTQv0dEXXJ2knm-41" value="" style="shape=flexArrow;endArrow=classic;html=1;rounded=0;fontSize=16;fillColor=#f5f5f5;gradientColor=#b3b3b3;strokeColor=#666666;" parent="80U4DQfTQv0dEXXJ2knm-40" edge="1">
          <mxGeometry width="50" height="50" relative="1" as="geometry">
            <mxPoint as="sourcePoint" />
            <mxPoint y="123.50999999999999" as="targetPoint" />
          </mxGeometry>
        </mxCell>
        <mxCell id="80U4DQfTQv0dEXXJ2knm-42" value="Metrics" style="text;html=1;strokeColor=none;fillColor=none;align=center;verticalAlign=middle;whiteSpace=wrap;rounded=0;fontSize=16;rotation=90;" parent="80U4DQfTQv0dEXXJ2knm-40" vertex="1">
          <mxGeometry x="-12.5" y="46.76" width="60" height="30" as="geometry" />
        </mxCell>
        <mxCell id="80U4DQfTQv0dEXXJ2knm-5" value="" style="group;fillColor=default;container=0;" parent="1" vertex="1" connectable="0">
          <mxGeometry x="138.765" y="232.845" width="602.47" height="60" as="geometry" />
        </mxCell>
        <mxCell id="80U4DQfTQv0dEXXJ2knm-9" value="&lt;b&gt;&lt;font color=&quot;#ffffff&quot;&gt;App Services&lt;/font&gt;&lt;/b&gt;" style="shape=process;whiteSpace=wrap;html=1;backgroundOutline=1;fontSize=16;fillColor=#601580;strokeColor=#B3B3B3;strokeWidth=3;perimeterSpacing=3;" parent="1" vertex="1">
          <mxGeometry x="610" y="49.84" width="210" height="64" as="geometry" />
        </mxCell>
        <mxCell id="80U4DQfTQv0dEXXJ2knm-2" value="" style="shape=cylinder3;whiteSpace=wrap;html=1;boundedLbl=1;backgroundOutline=1;size=15;rotation=-90;fillColor=#601580;strokeWidth=3;strokeColor=#B3B3B3;" parent="1" vertex="1">
          <mxGeometry x="392.99" y="-130" width="60" height="785.69" as="geometry" />
        </mxCell>
        <mxCell id="80U4DQfTQv0dEXXJ2knm-3" value="&lt;font color=&quot;#ffffff&quot; style=&quot;font-size: 16px;&quot;&gt;&lt;b&gt;EdgeX MessageBus&lt;/b&gt;&lt;/font&gt;" style="text;html=1;strokeColor=none;fillColor=none;align=center;verticalAlign=middle;whiteSpace=wrap;rounded=0;" parent="1" vertex="1">
          <mxGeometry x="368.76" y="253.35" width="160" height="30" as="geometry" />
        </mxCell>
        <mxCell id="80U4DQfTQv0dEXXJ2knm-19" value="" style="shape=flexArrow;endArrow=classic;html=1;rounded=0;fontSize=16;fillColor=#f5f5f5;strokeColor=#666666;gradientColor=#B3B3B3;gradientDirection=north;" parent="1" edge="1">
          <mxGeometry width="50" height="50" relative="1" as="geometry">
            <mxPoint x="121" y="420" as="sourcePoint" />
            <mxPoint x="120.5" y="292.84000000000003" as="targetPoint" />
          </mxGeometry>
        </mxCell>
        <mxCell id="80U4DQfTQv0dEXXJ2knm-30" value="Metrics" style="text;html=1;strokeColor=none;fillColor=none;align=center;verticalAlign=middle;whiteSpace=wrap;rounded=0;fontSize=16;rotation=-90;" parent="1" vertex="1">
          <mxGeometry x="109" y="342.84000000000003" width="60" height="30" as="geometry" />
        </mxCell>
        <mxCell id="80U4DQfTQv0dEXXJ2knm-48" value="" style="group" parent="1" vertex="1" connectable="0">
          <mxGeometry x="480" y="109.84" width="35" height="85" as="geometry" />
        </mxCell>
        <mxCell id="80U4DQfTQv0dEXXJ2knm-56" value="" style="group" parent="80U4DQfTQv0dEXXJ2knm-48" vertex="1" connectable="0">
          <mxGeometry width="35" height="85" as="geometry" />
        </mxCell>
        <mxCell id="80U4DQfTQv0dEXXJ2knm-35" value="" style="shape=flexArrow;endArrow=classic;html=1;rounded=0;fontSize=16;fillColor=#FFFFFF;strokeColor=#666666;gradientColor=#B3B3B3;" parent="80U4DQfTQv0dEXXJ2knm-56" edge="1">
          <mxGeometry width="50" height="50" relative="1" as="geometry">
            <mxPoint as="sourcePoint" />
            <mxPoint y="120.16" as="targetPoint" />
          </mxGeometry>
        </mxCell>
        <mxCell id="80U4DQfTQv0dEXXJ2knm-36" value="Metrics" style="text;html=1;strokeColor=none;fillColor=none;align=center;verticalAlign=middle;whiteSpace=wrap;rounded=0;fontSize=16;rotation=90;" parent="80U4DQfTQv0dEXXJ2knm-56" vertex="1">
          <mxGeometry x="-10" y="40" width="60" height="30" as="geometry" />
        </mxCell>
        <mxCell id="80U4DQfTQv0dEXXJ2knm-16" value="&lt;b&gt;&lt;font color=&quot;#ffffff&quot;&gt;Core Command&lt;/font&gt;&lt;/b&gt;" style="shape=process;whiteSpace=wrap;html=1;backgroundOutline=1;fontSize=16;fillColor=#601580;strokeWidth=3;perimeterSpacing=3;strokeColor=#B3B3B3;" parent="1" vertex="1">
          <mxGeometry x="390" y="53.84" width="120" height="60" as="geometry" />
        </mxCell>
        <mxCell id="80U4DQfTQv0dEXXJ2knm-52" value="" style="group" parent="1" vertex="1" connectable="0">
          <mxGeometry x="255" y="109.1" width="67" height="123.50999999999999" as="geometry" />
        </mxCell>
        <mxCell id="80U4DQfTQv0dEXXJ2knm-54" value="" style="shape=flexArrow;endArrow=classic;html=1;rounded=0;fontSize=16;fillColor=#f5f5f5;gradientColor=#b3b3b3;strokeColor=#666666;" parent="80U4DQfTQv0dEXXJ2knm-52" edge="1">
          <mxGeometry width="50" height="50" relative="1" as="geometry">
            <mxPoint as="sourcePoint" />
            <mxPoint y="123.50999999999999" as="targetPoint" />
          </mxGeometry>
        </mxCell>
        <mxCell id="80U4DQfTQv0dEXXJ2knm-55" value="System Events" style="text;html=1;strokeColor=none;fillColor=none;align=center;verticalAlign=middle;whiteSpace=wrap;rounded=0;fontSize=16;rotation=90;" parent="80U4DQfTQv0dEXXJ2knm-52" vertex="1">
          <mxGeometry x="-3" y="40" width="65" height="30" as="geometry" />
        </mxCell>
        <mxCell id="80U4DQfTQv0dEXXJ2knm-15" value="&lt;b&gt;Core Metadata&lt;/b&gt;" style="shape=process;whiteSpace=wrap;html=1;backgroundOutline=1;fontSize=16;fillColor=#601580;fontColor=#FFFFFF;strokeWidth=3;perimeterSpacing=3;strokeColor=#B3B3B3;" parent="1" vertex="1">
          <mxGeometry x="230" y="53.84" width="120" height="60" as="geometry" />
        </mxCell>
        <mxCell id="80U4DQfTQv0dEXXJ2knm-61" value="" style="group" parent="1" vertex="1" connectable="0">
          <mxGeometry x="672" y="292.84000000000003" width="35" height="90.51" as="geometry" />
        </mxCell>
        <mxCell id="80U4DQfTQv0dEXXJ2knm-7" value="" style="shape=flexArrow;endArrow=classic;html=1;rounded=0;fontSize=16;fillColor=#f5f5f5;gradientColor=#b3b3b3;strokeColor=#666666;" parent="80U4DQfTQv0dEXXJ2knm-61" edge="1">
          <mxGeometry width="50" height="50" relative="1" as="geometry">
            <mxPoint x="-6" y="120.50999999999999" as="sourcePoint" />
            <mxPoint x="-5" y="0.5099999999999909" as="targetPoint" />
          </mxGeometry>
        </mxCell>
        <mxCell id="80U4DQfTQv0dEXXJ2knm-25" value="Events" style="text;html=1;strokeColor=none;fillColor=none;align=center;verticalAlign=middle;whiteSpace=wrap;rounded=0;fontSize=16;rotation=-90;" parent="80U4DQfTQv0dEXXJ2knm-61" vertex="1">
          <mxGeometry x="-18" y="48.63684210526316" width="60" height="28.582105263157896" as="geometry" />
        </mxCell>
        <mxCell id="80U4DQfTQv0dEXXJ2knm-68" value="" style="group" parent="1" vertex="1" connectable="0">
          <mxGeometry x="642.77" y="112.84" width="32.460000000000036" height="120" as="geometry" />
        </mxCell>
        <mxCell id="80U4DQfTQv0dEXXJ2knm-10" value="" style="shape=flexArrow;endArrow=classic;html=1;rounded=0;fontSize=16;fillColor=#f5f5f5;gradientColor=#b3b3b3;strokeColor=#666666;" parent="80U4DQfTQv0dEXXJ2knm-68" edge="1">
          <mxGeometry width="50" height="50" relative="1" as="geometry">
            <mxPoint y="120" as="sourcePoint" />
            <mxPoint as="targetPoint" />
          </mxGeometry>
        </mxCell>
        <mxCell id="80U4DQfTQv0dEXXJ2knm-32" value="Events" style="text;html=1;strokeColor=none;fillColor=none;align=center;verticalAlign=middle;whiteSpace=wrap;rounded=0;fontSize=16;rotation=90;" parent="80U4DQfTQv0dEXXJ2knm-68" vertex="1">
          <mxGeometry x="-12.539999999999964" y="45.01999999999998" width="60" height="30" as="geometry" />
        </mxCell>
        <mxCell id="80U4DQfTQv0dEXXJ2knm-69" value="" style="group" parent="1" vertex="1" connectable="0">
          <mxGeometry x="86.76999999999998" y="112.84" width="29.730000000000018" height="120" as="geometry" />
        </mxCell>
        <mxCell id="80U4DQfTQv0dEXXJ2knm-45" value="" style="shape=flexArrow;endArrow=classic;html=1;rounded=0;fontSize=16;fillColor=#f5f5f5;gradientColor=#b3b3b3;strokeColor=#666666;" parent="80U4DQfTQv0dEXXJ2knm-69" edge="1">
          <mxGeometry width="50" height="50" relative="1" as="geometry">
            <mxPoint y="120" as="sourcePoint" />
            <mxPoint as="targetPoint" />
          </mxGeometry>
        </mxCell>
        <mxCell id="80U4DQfTQv0dEXXJ2knm-46" value="Events" style="text;html=1;strokeColor=none;fillColor=none;align=center;verticalAlign=middle;whiteSpace=wrap;rounded=0;fontSize=16;rotation=90;" parent="80U4DQfTQv0dEXXJ2knm-69" vertex="1">
          <mxGeometry x="-12.769999999999982" y="49.50999999999999" width="60" height="25" as="geometry" />
        </mxCell>
        <mxCell id="80U4DQfTQv0dEXXJ2knm-6" value="&lt;b&gt;Device Services&lt;/b&gt;" style="shape=process;whiteSpace=wrap;html=1;backgroundOutline=1;fontSize=16;fillColor=#601580;fontColor=#FFFFFF;strokeWidth=3;perimeterSpacing=3;strokeColor=#B3B3B3;" parent="1" vertex="1">
          <mxGeometry x="500" y="411.35" width="200" height="60.51" as="geometry" />
        </mxCell>
        <mxCell id="80U4DQfTQv0dEXXJ2knm-93" value="" style="group" parent="1" vertex="1" connectable="0">
          <mxGeometry x="420" y="113" width="37" height="117" as="geometry" />
        </mxCell>
        <mxCell id="80U4DQfTQv0dEXXJ2knm-94" value="" style="shape=flexArrow;endArrow=classic;html=1;rounded=0;fontSize=16;entryX=1.008;entryY=0.523;entryDx=0;entryDy=0;entryPerimeter=0;startArrow=block;fillColor=#f5f5f5;strokeColor=#666666;gradientColor=#b3b3b3;" parent="80U4DQfTQv0dEXXJ2knm-93" edge="1">
          <mxGeometry width="50" height="50" relative="1" as="geometry">
            <mxPoint as="sourcePoint" />
            <mxPoint y="117" as="targetPoint" />
          </mxGeometry>
        </mxCell>
        <mxCell id="80U4DQfTQv0dEXXJ2knm-95" value="Commands" style="text;html=1;strokeColor=none;fillColor=none;align=center;verticalAlign=middle;whiteSpace=wrap;rounded=0;fontSize=16;rotation=90;" parent="80U4DQfTQv0dEXXJ2knm-93" vertex="1">
          <mxGeometry x="-5" y="43.075893230691996" width="60" height="29.369927202744545" as="geometry" />
        </mxCell>
        <mxCell id="80U4DQfTQv0dEXXJ2knm-18" value="&lt;b&gt;Support Scheduler&lt;/b&gt;" style="shape=process;whiteSpace=wrap;html=1;backgroundOutline=1;fontSize=16;fillColor=#601580;fontColor=#FFFFFF;strokeWidth=3;perimeterSpacing=3;strokeColor=#B3B3B3;" parent="1" vertex="1">
          <mxGeometry x="220" y="411.35" width="140" height="60.51" as="geometry" />
        </mxCell>
        <mxCell id="80U4DQfTQv0dEXXJ2knm-17" value="&lt;b&gt;Support Notifications&lt;/b&gt;" style="shape=process;whiteSpace=wrap;html=1;backgroundOutline=1;fontSize=16;fillColor=#601580;fontColor=#FFFFFF;strokeWidth=3;perimeterSpacing=3;strokeColor=#B3B3B3;" parent="1" vertex="1">
          <mxGeometry x="50" y="411.35" width="140" height="60" as="geometry" />
        </mxCell>
        <mxCell id="80U4DQfTQv0dEXXJ2knm-102" value="" style="group" parent="1" vertex="1" connectable="0">
          <mxGeometry x="116.7142857142857" y="108.35" width="49.00000000000003" height="123.51000000000002" as="geometry" />
        </mxCell>
        <mxCell id="80U4DQfTQv0dEXXJ2knm-104" value="" style="group" parent="80U4DQfTQv0dEXXJ2knm-102" vertex="1" connectable="0">
          <mxGeometry x="2" width="49.000000000000014" height="123.51000000000002" as="geometry" />
        </mxCell>
        <mxCell id="80U4DQfTQv0dEXXJ2knm-50" value="" style="shape=flexArrow;endArrow=classic;html=1;rounded=0;fontSize=16;fillColor=#f5f5f5;gradientColor=#b3b3b3;strokeColor=#666666;" parent="80U4DQfTQv0dEXXJ2knm-104" edge="1">
          <mxGeometry width="50" height="50" relative="1" as="geometry">
            <mxPoint x="8.785714285714306" as="sourcePoint" />
            <mxPoint x="8.785714285714306" y="123.51000000000002" as="targetPoint" />
          </mxGeometry>
        </mxCell>
        <mxCell id="80U4DQfTQv0dEXXJ2knm-51" value="Events" style="text;html=1;strokeColor=none;fillColor=none;align=center;verticalAlign=middle;whiteSpace=wrap;rounded=0;fontSize=16;rotation=90;" parent="80U4DQfTQv0dEXXJ2knm-104" vertex="1">
          <mxGeometry x="0.9285714285714448" y="41" width="47.14285714285714" height="49.000000000000014" as="geometry" />
        </mxCell>
        <mxCell id="80U4DQfTQv0dEXXJ2knm-80" value="" style="shape=flexArrow;endArrow=classic;html=1;rounded=0;fontSize=16;fillColor=#ffff88;strokeColor=#36393d;" parent="1" edge="1">
          <mxGeometry width="50" height="50" relative="1" as="geometry">
            <mxPoint x="444.28" y="520.5018747656543" as="sourcePoint" />
            <mxPoint x="529.7520416124837" y="520.5018747656543" as="targetPoint" />
          </mxGeometry>
        </mxCell>
        <mxCell id="80U4DQfTQv0dEXXJ2knm-83" value="" style="shape=flexArrow;endArrow=classic;html=1;rounded=0;fontSize=16;fillColor=#f5f5f5;gradientColor=#b3b3b3;strokeColor=#666666;" parent="1" edge="1">
          <mxGeometry width="50" height="50" relative="1" as="geometry">
            <mxPoint x="189.99625487646296" y="519.0112485939258" as="sourcePoint" />
            <mxPoint x="275.4682964889466" y="519.0112485939258" as="targetPoint" />
          </mxGeometry>
        </mxCell>
        <mxCell id="80U4DQfTQv0dEXXJ2knm-84" value="Existing" style="text;html=1;strokeColor=none;fillColor=none;align=center;verticalAlign=middle;whiteSpace=wrap;rounded=0;fontSize=16;" parent="1" vertex="1">
          <mxGeometry x="282.28754226267876" y="509" width="64.91547464239271" height="22.497187851518557" as="geometry" />
        </mxCell>
        <mxCell id="80U4DQfTQv0dEXXJ2knm-85" value="future" style="text;html=1;strokeColor=none;fillColor=none;align=center;verticalAlign=middle;whiteSpace=wrap;rounded=0;fontSize=16;" parent="1" vertex="1">
          <mxGeometry x="534.0875422626788" y="509.00281214848144" width="64.91547464239271" height="22.497187851518557" as="geometry" />
        </mxCell>
        <mxCell id="80U4DQfTQv0dEXXJ2knm-14" value="&lt;b&gt;Core Data&lt;/b&gt;" style="shape=process;whiteSpace=wrap;html=1;backgroundOutline=1;fontSize=16;fillColor=#601580;fontColor=#FFFFFF;strokeWidth=3;perimeterSpacing=3;strokeColor=#B3B3B3;" parent="1" vertex="1">
          <mxGeometry x="69.99999999999999" y="53.84" width="120" height="60" as="geometry" />
        </mxCell>
        <mxCell id="80U4DQfTQv0dEXXJ2knm-106" value="" style="group" parent="1" vertex="1" connectable="0">
          <mxGeometry x="689" y="113.35" width="34" height="116.65" as="geometry" />
        </mxCell>
        <mxCell id="80U4DQfTQv0dEXXJ2knm-12" value="" style="shape=flexArrow;endArrow=classic;html=1;rounded=0;fontSize=16;fillColor=#f5f5f5;strokeColor=#666666;gradientColor=#b3b3b3;" parent="80U4DQfTQv0dEXXJ2knm-106" edge="1">
          <mxGeometry width="50" height="50" relative="1" as="geometry">
            <mxPoint as="sourcePoint" />
            <mxPoint y="116.65" as="targetPoint" />
          </mxGeometry>
        </mxCell>
        <mxCell id="80U4DQfTQv0dEXXJ2knm-34" value="Custom" style="text;html=1;strokeColor=none;fillColor=none;align=center;verticalAlign=middle;whiteSpace=wrap;rounded=0;fontSize=16;rotation=90;" parent="80U4DQfTQv0dEXXJ2knm-106" vertex="1">
          <mxGeometry x="-12" y="40" width="60" height="30" as="geometry" />
        </mxCell>
        <mxCell id="80U4DQfTQv0dEXXJ2knm-107" value="" style="group" parent="1" vertex="1" connectable="0">
          <mxGeometry x="737" y="113.35" width="34" height="120" as="geometry" />
        </mxCell>
        <mxCell id="80U4DQfTQv0dEXXJ2knm-21" value="" style="shape=flexArrow;endArrow=classic;html=1;rounded=0;fontSize=16;fillColor=#f5f5f5;gradientColor=#b3b3b3;strokeColor=#666666;" parent="80U4DQfTQv0dEXXJ2knm-107" edge="1">
          <mxGeometry width="50" height="50" relative="1" as="geometry">
            <mxPoint as="sourcePoint" />
            <mxPoint y="120" as="targetPoint" />
          </mxGeometry>
        </mxCell>
        <mxCell id="80U4DQfTQv0dEXXJ2knm-28" value="Metrics" style="text;html=1;strokeColor=none;fillColor=none;align=center;verticalAlign=middle;whiteSpace=wrap;rounded=0;fontSize=16;rotation=90;" parent="80U4DQfTQv0dEXXJ2knm-107" vertex="1">
          <mxGeometry x="-11" y="42" width="60" height="30" as="geometry" />
        </mxCell>
        <mxCell id="80U4DQfTQv0dEXXJ2knm-65" value="" style="shape=flexArrow;endArrow=classic;html=1;rounded=0;fontSize=16;startArrow=block;fillColor=#f5f5f5;strokeColor=#666666;exitX=-0.004;exitY=0.728;exitDx=0;exitDy=0;exitPerimeter=0;gradientColor=#b3b3b3;" parent="1" source="80U4DQfTQv0dEXXJ2knm-2" edge="1">
          <mxGeometry width="50" height="50" relative="1" as="geometry">
            <mxPoint x="600" y="350" as="sourcePoint" />
            <mxPoint x="602" y="410" as="targetPoint" />
          </mxGeometry>
        </mxCell>
        <mxCell id="80U4DQfTQv0dEXXJ2knm-66" value="Commands" style="text;html=1;strokeColor=none;fillColor=none;align=center;verticalAlign=middle;whiteSpace=wrap;rounded=0;fontSize=16;rotation=90;" parent="1" vertex="1">
          <mxGeometry x="599" y="336.6" width="60" height="30" as="geometry" />
        </mxCell>
        <mxCell id="80U4DQfTQv0dEXXJ2knm-111" value="" style="shape=flexArrow;endArrow=classic;html=1;rounded=0;fontSize=16;fillColor=#f5f5f5;gradientColor=#b3b3b3;strokeColor=#666666;exitX=1.031;exitY=0.95;exitDx=0;exitDy=0;exitPerimeter=0;" parent="1" edge="1">
          <mxGeometry width="50" height="50" relative="1" as="geometry">
            <mxPoint x="780.5505" y="230.9849999999999" as="sourcePoint" />
            <mxPoint x="781" y="110" as="targetPoint" />
          </mxGeometry>
        </mxCell>
        <mxCell id="80U4DQfTQv0dEXXJ2knm-112" value="Metrics" style="text;html=1;strokeColor=none;fillColor=none;align=center;verticalAlign=middle;whiteSpace=wrap;rounded=0;fontSize=16;rotation=90;" parent="1" vertex="1">
          <mxGeometry x="769" y="156" width="60" height="30" as="geometry" />
        </mxCell>
        <mxCell id="80U4DQfTQv0dEXXJ2knm-20" value="" style="shape=flexArrow;endArrow=classic;html=1;rounded=0;fontSize=16;fillColor=#FFFFFF;strokeColor=#666666;gradientColor=#B3B3B3;gradientDirection=north;" parent="1" edge="1">
          <mxGeometry width="50" height="50" relative="1" as="geometry">
            <mxPoint x="294" y="413.1553965658218" as="sourcePoint" />
            <mxPoint x="294" y="293.2504497138185" as="targetPoint" />
          </mxGeometry>
        </mxCell>
        <mxCell id="80U4DQfTQv0dEXXJ2knm-31" value="Metrics" style="text;html=1;strokeColor=none;fillColor=none;align=center;verticalAlign=middle;whiteSpace=wrap;rounded=0;fontSize=16;rotation=-90;" parent="1" vertex="1">
          <mxGeometry x="280" y="339.9479762878169" width="60" height="32.70134914145543" as="geometry" />
        </mxCell>
        <mxCell id="80U4DQfTQv0dEXXJ2knm-47" value="" style="group" parent="1" vertex="1" connectable="0">
          <mxGeometry x="326" y="107.84" width="35" height="123.50999999999999" as="geometry" />
        </mxCell>
        <mxCell id="80U4DQfTQv0dEXXJ2knm-37" value="" style="shape=flexArrow;endArrow=classic;html=1;rounded=0;fontSize=16;fillColor=#FFFFFF;strokeColor=#666666;gradientColor=#B3B3B3;" parent="80U4DQfTQv0dEXXJ2knm-47" edge="1">
          <mxGeometry width="50" height="50" relative="1" as="geometry">
            <mxPoint as="sourcePoint" />
            <mxPoint y="123.50999999999999" as="targetPoint" />
          </mxGeometry>
        </mxCell>
        <mxCell id="80U4DQfTQv0dEXXJ2knm-38" value="Metrics" style="text;html=1;strokeColor=none;fillColor=none;align=center;verticalAlign=middle;whiteSpace=wrap;rounded=0;fontSize=16;rotation=90;" parent="80U4DQfTQv0dEXXJ2knm-47" vertex="1">
          <mxGeometry x="-10" y="40" width="60" height="30" as="geometry" />
        </mxCell>
      </root>
    </mxGraphModel>
  </diagram>
</mxfile>
